<svg width="20" height="20" viewBox="0 0 20 20" fill="none" xmlns="http://www.w3.org/2000/svg">
<path d="M3.33337 4.7937H5.16992V15.2645H3.33337V4.7937ZM6.38441 4.7937H8.20614V15.2645H6.38441V4.7937ZM9.42063 4.7937H11.2145V15.2645H9.42063V4.7937ZM13.0641 4.7937H14.2786V15.2645H13.0641V4.7937ZM14.9861 4.7937H16.6667V15.2645H14.9861V4.7937Z" fill="white"/>
<path d="M6 1.25H0V6.5H1.39999V2.65H6V1.25Z" fill="white"/>
<path d="M14 1.25H20V6.5H18.6V2.65H14V1.25Z" fill="white"/>
<path d="M6 18.75H0V13.5H1.4V17.35H6V18.75Z" fill="white"/>
<path d="M14 18.75H20V13.5H18.6V17.35H14V18.75Z" fill="white"/>
<path d="M0 9.96997H20" stroke="#DE2929" stroke-width="1.34"/>
</svg>
