<svg width="20" height="20" viewBox="0 0 20 20" fill="none" xmlns="http://www.w3.org/2000/svg">
<path d="M0 4C0 1.79086 1.79086 0 4 0H16C18.2091 0 20 1.79086 20 4V16C20 18.2091 18.2091 20 16 20H4C1.79086 20 0 18.2091 0 16V4Z" fill="white"/>
<path d="M12 15.334H5.33333V6.66732C5.33333 6.30065 5.03333 6.00065 4.66667 6.00065C4.3 6.00065 4 6.30065 4 6.66732V15.334C4 16.0673 4.6 16.6673 5.33333 16.6673H12C12.3667 16.6673 12.6667 16.3673 12.6667 16.0007C12.6667 15.634 12.3667 15.334 12 15.334ZM15.3333 12.6673V4.66732C15.3333 3.93398 14.7333 3.33398 14 3.33398H8C7.26667 3.33398 6.66667 3.93398 6.66667 4.66732V12.6673C6.66667 13.4007 7.26667 14.0007 8 14.0007H14C14.7333 14.0007 15.3333 13.4007 15.3333 12.6673ZM14 12.6673H8V4.66732H14V12.6673Z" fill="#333333"/>
</svg>
