<svg width="21" height="20" viewBox="0 0 21 20" fill="none" xmlns="http://www.w3.org/2000/svg">
<path d="M19.29 3.8902L9.28998 13.8902C8.89998 14.2802 8.26998 14.2802 7.87998 13.8902L5.04998 11.0602C4.65998 10.6702 4.65998 10.0402 5.04998 9.6502C5.43998 9.2602 6.06998 9.2602 6.45998 9.6502L8.57998 11.7702L17.87 2.4802C18.26 2.0902 18.89 2.0902 19.28 2.4802C19.68 2.8702 19.68 3.5002 19.29 3.8902ZM13.77 0.740203C12.08 0.0502028 10.16 -0.189797 8.15998 0.170203C4.08998 0.900203 0.839977 4.1802 0.149977 8.2502C-0.990023 15.0002 4.62998 20.7802 11.34 19.9102C15.3 19.4002 18.62 16.4502 19.66 12.6002C20.06 11.1302 20.1 9.7102 19.87 8.3802C19.74 7.5802 18.75 7.2702 18.17 7.8402C17.94 8.0702 17.84 8.4102 17.9 8.7302C18.12 10.0602 18.02 11.4802 17.38 12.9902C16.22 15.7002 13.7 17.6902 10.77 17.9602C5.66998 18.4302 1.43998 14.1102 2.06998 8.9802C2.49998 5.4402 5.34998 2.5602 8.87998 2.0702C10.61 1.8302 12.25 2.1602 13.65 2.8802C14.04 3.0802 14.51 3.0102 14.82 2.7002C15.3 2.2202 15.18 1.4102 14.58 1.1002C14.31 0.980203 14.04 0.850203 13.77 0.740203Z" fill="#219653"/>
</svg>
