<svg xmlns="http://www.w3.org/2000/svg" xml:space="preserve" style="enable-background:new 0 0 441.98 387.24" viewBox="0 0 441.98 387.24"><path d="M32.44 265.26c.57-7.01 1.11-13.64 1.63-20.26.92-11.7 1.83-23.4 2.74-35.1.93-11.95 1.84-23.9 2.78-35.85.89-11.37 1.82-22.73 2.71-34.1.79-10.12 1.59-20.25 2.3-30.38 1.03-14.53 8.41-25.33 19.81-33.71 6.82-5.02 14.55-7.94 23.17-9.15v-2.75c0-16-.01-32 0-47.99C87.58 5.81 93.2.19 103.34.18 148 .11 192.66.05 237.32 0c4.41 0 8.83.07 13.24.19 8.28.22 14 6.08 14.02 14.41.03 16.25.01 32.5.01 48.74v3.04h3.06c25.41 0 50.83.33 76.24-.12 16.62-.3 29.36 6.69 39.97 18.64 6.22 7.01 10.92 14.99 12.8 24.25.96 4.7 1.05 9.58 1.41 14.39.84 11.12 1.6 22.25 2.39 33.38.88 12.54 1.75 25.07 2.64 37.61.76 10.71 1.56 21.42 2.33 32.13.73 10.21 1.44 20.42 2.17 30.64.18 2.49.38 4.97.61 7.91 2.05 0 4.09-.04 6.12.01 13.37.28 24.19 9.07 26.98 22.06.47 2.18.64 4.46.65 6.7.05 21.5.05 42.99.02 64.49-.02 16.6-12.09 28.73-28.72 28.73-127.65.02-255.29-.01-382.94.05-10.95.01-19.81-3.66-25.94-12.98-2.76-4.19-4.29-8.85-4.3-13.88-.04-22.83-.15-45.66.03-68.49.12-14.6 12.69-26.63 27.32-26.63 1.63-.01 3.27-.01 5.01-.01zm254.34-154.63c-19.91 0-39.82-.01-59.73 0-4.98 0-6.96 1.97-6.97 6.95-.01 32.24-.01 64.48 0 96.71 0 4.95 2.04 6.93 7.03 6.93 39.65.01 79.3.01 118.95 0 4.97 0 6.83-1.85 6.85-6.75.02-6.41 0-12.82 0-19.23v-77.47c0-5.48-1.66-7.14-7.17-7.15-19.65 0-39.31 0-58.96.01zm-176.86 110.6c5.16 0 10.32.02 15.48 0 4.78-.02 6.68-1.9 6.69-6.61.01-3.08.01-6.16 0-9.24-.02-4.38-2.05-6.48-6.38-6.49-10.57-.03-21.14-.03-31.71 0-4.17.01-6.28 2.05-6.4 6.26-.1 3.24-.08 6.49-.01 9.74.1 4.29 2.23 6.32 6.6 6.34 5.24.02 10.48 0 15.73 0zm-.08-110.6c-5.32 0-10.65-.03-15.97.01-4.05.03-6.16 2.06-6.27 6.1-.09 3.41-.11 6.82 0 10.23.12 3.85 2.32 5.91 6.22 5.91 10.73.02 21.46.03 32.19 0 4.01-.01 6.05-2.14 6.07-6.24.02-3.24.02-6.49 0-9.73-.03-4.28-1.96-6.25-6.27-6.28-5.32-.03-10.64 0-15.97 0zm66.13 22.27c5.5 0 11 .04 16.5-.01 3.69-.03 5.72-2.06 5.78-5.73.06-3.67.06-7.33-.01-11-.06-3.41-2.01-5.47-5.44-5.49-11.08-.07-22.16-.07-33.24-.01-3.55.02-5.5 2.12-5.55 5.66-.04 3.42-.02 6.83-.01 10.25.02 4.4 1.98 6.32 6.47 6.33 5.17.01 10.34 0 15.5 0zm.05 88.33c5.42 0 10.83.04 16.25-.01 3.95-.04 5.93-1.97 5.99-5.77.06-3.58.05-7.17 0-10.75-.06-3.6-2.16-5.78-5.75-5.8-10.91-.05-21.83-.06-32.74.01-3.65.02-5.7 2.2-5.74 5.81-.04 3.42-.02 6.83-.01 10.25.02 4.28 1.94 6.22 6.27 6.26 5.23.03 10.48 0 15.73 0zm-66.31-44.24c5.49 0 10.98.03 16.47-.01 3.76-.03 5.85-2.11 5.9-5.85.04-3.41.03-6.82 0-10.23-.03-4.04-2.1-6.08-6.19-6.09-10.65-.02-21.29-.01-31.94 0-4.1 0-6.24 1.98-6.35 5.99-.1 3.41-.1 6.82 0 10.23.12 3.95 2.22 5.93 6.14 5.95 5.32.03 10.64.01 15.97.01zm66.37 0c5.58 0 11.16.04 16.74-.02 3.33-.03 5.33-1.95 5.41-5.25.1-3.91.1-7.83-.01-11.74-.08-3.07-2.2-5.13-5.29-5.15-11.16-.05-22.32-.05-33.48 0-3.38.01-5.33 2.05-5.4 5.52-.07 3.58-.07 7.16-.05 10.74.03 3.86 2 5.86 5.83 5.89 5.42.04 10.84.01 16.25.01z" style="fill:#fff"/></svg>