<?xml version="1.0" standalone="no"?>
<!DOCTYPE svg PUBLIC "-//W3C//DTD SVG 20010904//EN"
 "http://www.w3.org/TR/2001/REC-SVG-20010904/DTD/svg10.dtd">
<svg version="1.0" xmlns="http://www.w3.org/2000/svg"
 width="64.000000pt" height="64.000000pt" viewBox="0 0 64.000000 64.000000"
 preserveAspectRatio="xMidYMid meet">
<metadata>
Created by potrace 1.11, written by Peter Selinger 2001-2013
</metadata>
<g transform="translate(0.000000,64.000000) scale(0.100000,-0.100000)"
fill="#000000" stroke="none">
<path d="M129 588 c-1 -13 -2 -35 -2 -51 0 -20 -6 -29 -23 -33 -24 -6 -37 -30
-40 -74 -1 -14 -3 -25 -3 -25 -1 0 -4 -38 -7 -85 -4 -76 -7 -87 -29 -103 -22
-16 -25 -26 -25 -78 0 -106 -23 -99 318 -99 219 0 301 3 310 12 12 12 17 124
6 152 -3 9 -15 16 -25 16 -14 0 -19 8 -20 28 -1 25 -3 57 -12 162 -8 84 -27
99 -127 103 -65 2 -65 2 -66 32 -4 71 8 65 -129 65 -123 0 -125 0 -126 -22z
m51 -148 c18 -11 8 -22 -25 -26 -15 -2 -25 2 -25 10 0 26 23 33 50 16z m107
-4 c10 -9 -3 -18 -31 -21 -22 -3 -42 16 -30 28 7 7 53 2 61 -7z m218 -71 l0
-80 -80 0 c-44 -1 -86 1 -92 3 -9 3 -13 27 -13 76 0 40 2 75 4 77 3 2 44 4 93
4 l88 0 0 -80z m-220 -6 c-8 -12 -52 -12 -60 0 -3 6 2 14 12 20 20 11 57 -4
48 -20z m-95 6 c0 -10 -10 -15 -30 -15 -20 0 -30 5 -30 15 0 10 10 15 30 15
20 0 30 -5 30 -15z m0 -61 c0 -8 -3 -14 -7 -15 -5 0 -16 -2 -25 -4 -19 -4 -32
10 -24 24 9 14 56 10 56 -5z m98 -2 c2 -6 0 -12 -5 -13 -4 0 -15 -2 -24 -4
-22 -4 -43 10 -35 23 9 14 58 10 64 -6z"/>
</g>
</svg>
